
<svg version="1.0"
 width="512.000000pt" height="512.000000pt" viewBox="0 0 512.000000 512.000000"
 preserveAspectRatio="xMidYMid meet">

<g transform="translate(0.000000,512.000000) scale(0.100000,-0.100000)"
fill="#000000" stroke="none">
<path d="M2252 4930 c-29 -12 -30 -16 -93 -285 l-54 -231 -115 -37 c-63 -20
-171 -64 -239 -97 -107 -52 -131 -60 -181 -60 -57 0 -63 2 -252 120 l-193 120
-232 -232 c-188 -188 -230 -235 -223 -249 5 -9 59 -96 120 -193 108 -172 110
-177 110 -235 0 -52 -7 -74 -60 -182 -33 -68 -77 -176 -97 -240 l-38 -115
-239 -55 c-133 -30 -249 -61 -260 -71 -20 -16 -21 -24 -21 -328 0 -304 1 -312
21 -328 11 -10 127 -41 260 -71 l239 -55 38 -115 c20 -64 64 -172 97 -240 53
-108 60 -130 60 -182 0 -58 -2 -62 -120 -251 l-120 -193 232 -232 c127 -127
237 -229 242 -226 6 3 97 59 202 125 236 146 222 144 405 54 71 -36 183 -82
247 -102 l117 -38 58 -245 c32 -139 64 -252 72 -261 14 -13 60 -15 326 -15
302 0 311 1 327 21 10 11 41 125 72 260 l54 239 116 38 c63 20 171 64 239 97
108 53 130 60 182 60 58 0 63 -2 235 -110 97 -61 184 -115 193 -120 14 -7 61
35 249 223 l232 232 -120 194 c-117 189 -120 195 -120 251 0 50 8 74 60 181
33 68 77 176 97 239 l37 116 240 54 c133 31 249 62 260 72 20 16 21 25 21 328
0 303 -1 312 -21 328 -11 10 -125 41 -260 72 l-239 54 -38 116 c-20 63 -64
171 -97 239 -52 107 -60 131 -60 181 0 57 3 62 120 251 l120 194 -232 232
c-188 188 -235 230 -249 223 -9 -5 -96 -59 -193 -120 -172 -108 -177 -110
-235 -110 -52 0 -74 7 -182 60 -68 33 -176 77 -239 97 l-116 38 -54 239 c-31
135 -62 249 -72 260 -16 20 -27 21 -315 23 -166 1 -308 -2 -321 -7z m672 -258
c66 -292 58 -276 148 -302 126 -36 269 -92 377 -148 l103 -53 185 116 c179
111 186 115 241 115 l57 0 182 -182 183 -183 0 -55 c0 -53 -5 -63 -117 -244
-104 -168 -115 -191 -104 -209 60 -95 139 -283 186 -440 24 -80 30 -90 58
-101 18 -7 130 -35 249 -62 l218 -49 0 -315 0 -315 -218 -49 c-292 -66 -276
-58 -302 -148 -36 -126 -80 -239 -141 -362 l-60 -119 116 -184 c111 -179 115
-186 115 -241 l0 -57 -182 -182 -183 -183 -55 0 c-54 0 -63 4 -240 115 -101
63 -187 115 -191 115 -4 0 -33 -15 -66 -33 -100 -56 -213 -103 -352 -147 -124
-40 -134 -45 -146 -74 -6 -17 -34 -129 -61 -249 l-49 -217 -315 2 -314 3 -53
225 c-29 124 -57 235 -62 247 -7 16 -30 28 -83 43 -149 43 -360 131 -456 191
-18 11 -39 1 -207 -104 -181 -113 -188 -117 -243 -117 l-57 0 -182 182 -183
183 0 55 c0 53 5 63 115 240 63 102 115 188 115 192 0 3 -15 32 -33 65 -56
100 -103 213 -147 352 -40 124 -45 134 -74 146 -17 6 -129 34 -248 61 l-218
49 0 315 0 315 218 49 c292 66 276 58 302 148 43 149 131 360 191 456 11 18 1
39 -104 207 -113 181 -117 188 -117 243 l0 57 182 182 183 183 55 0 c53 0 63
-5 244 -117 168 -104 190 -115 208 -104 95 59 284 139 440 186 52 16 92 33 97
43 5 10 32 116 60 237 28 121 53 226 56 233 3 9 76 12 317 12 l313 0 49 -218z"/>
<path d="M2377 3964 c-504 -78 -941 -425 -1131 -896 -99 -247 -127 -474 -87
-710 103 -599 568 -1075 1168 -1195 121 -24 348 -24 463 0 296 62 552 199 760
407 324 324 481 779 412 1185 -47 272 -161 514 -339 720 -315 364 -807 558
-1246 489z m458 -50 c413 -72 779 -348 964 -727 98 -201 131 -361 131 -633 0
-265 -31 -411 -130 -619 -181 -379 -549 -656 -966 -729 -121 -21 -427 -21
-548 0 -551 96 -984 529 -1080 1080 -21 119 -22 430 -1 547 72 415 341 774
723 966 85 43 250 97 348 115 113 20 442 21 559 0z"/>
</g>
</svg>
