
<svg version="1.0"
 width="512.000000pt" height="512.000000pt" viewBox="0 0 512.000000 512.000000"
 preserveAspectRatio="xMidYMid meet">
<g transform="translate(0.000000,512.000000) scale(0.100000,-0.100000)"
fill="#000000" stroke="none">
<path d="M2423 4580 c-62 -16 -2076 -871 -2204 -936 -58 -29 -135 -114 -150
-165 -11 -33 -16 -39 -41 -39 -25 0 -28 -3 -28 -35 0 -31 3 -35 28 -35 23 0
30 -8 51 -55 37 -87 94 -130 262 -202 l144 -61 3 -630 2 -631 -21 -6 c-33 -11
-98 -74 -120 -116 -25 -50 -24 -77 6 -133 33 -62 34 -126 1 -169 -39 -52 -45
-90 -76 -418 -28 -303 -28 -315 -11 -348 36 -71 89 -91 246 -91 154 0 208 19
248 88 18 31 18 39 -12 363 -30 325 -31 332 -61 385 -39 70 -40 129 -4 209
l26 57 -28 56 c-22 43 -42 66 -82 92 l-52 34 0 593 0 593 51 0 c41 0 88 -16
255 -87 l204 -88 0 -337 0 -337 29 -86 c127 -379 636 -650 1324 -706 404 -32
914 77 1218 262 218 133 342 270 400 444 l29 86 0 337 0 337 431 185 c481 206
505 220 550 325 21 47 28 55 52 55 24 0 27 4 27 35 0 32 -3 35 -28 35 -25 0
-30 6 -41 39 -15 51 -92 136 -150 165 -138 70 -2143 920 -2208 937 -94 24
-177 24 -270 -1z m321 -55 c62 -16 2167 -915 2204 -941 43 -30 62 -86 62 -182
0 -78 -3 -93 -26 -128 -15 -22 -34 -45 -43 -51 -9 -6 -501 -218 -1092 -471
-695 -298 -1095 -464 -1133 -471 -80 -15 -247 -14 -321 2 -33 7 -416 165 -862
357 l-803 343 0 54 c0 46 3 53 22 58 87 20 1413 245 1446 245 32 0 52 -8 87
-34 85 -66 231 -101 341 -84 118 18 228 78 267 146 17 28 17 37 7 63 -30 71
-134 133 -268 159 -153 30 -368 -53 -412 -160 -7 -17 -22 -32 -34 -35 -115
-27 -1648 -285 -1693 -285 -48 0 -79 8 -154 41 -160 69 -173 76 -202 121 -24
38 -27 51 -27 130 0 96 19 152 62 182 34 24 2140 924 2200 940 74 20 296 21
372 1z m-25 -1001 c36 -9 81 -25 99 -36 31 -19 32 -22 32 -84 l0 -65 -56 -26
c-117 -53 -351 -53 -468 0 l-56 26 0 64 c0 59 2 66 27 83 78 51 292 70 422 38z
m-934 -1029 c302 -130 578 -246 614 -258 92 -30 230 -30 322 0 36 12 312 128
614 258 509 218 554 235 608 235 l59 0 -4 -182 c-4 -158 -7 -190 -26 -238 -54
-137 -178 -258 -384 -374 -83 -46 -80 -72 4 -30 79 40 160 98 232 164 61 57
66 60 115 60 l51 0 0 -50 c0 -259 -383 -535 -880 -634 -186 -37 -312 -48 -550
-48 -238 0 -364 11 -550 48 -497 99 -880 375 -880 634 l0 50 53 0 c50 0 55 -2
102 -51 147 -149 464 -299 771 -362 198 -41 290 -51 489 -52 210 0 314 9 342
31 16 13 17 15 2 27 -12 9 -39 11 -100 6 -126 -11 -349 -10 -479 1 -303 27
-538 88 -760 200 -232 117 -385 277 -419 438 -6 29 -11 123 -11 207 l0 155 58
0 c53 0 101 -19 607 -235z m-1169 -778 c23 -20 28 -34 32 -85 9 -124 -15 -152
-132 -152 -68 0 -83 3 -103 22 -20 19 -23 31 -23 100 0 121 15 136 132 137 56
1 71 -3 94 -22z m14 -335 c19 -20 30 -43 34 -73 14 -101 56 -604 56 -664 l0
-65 -205 0 -205 0 0 44 c0 87 61 710 72 730 23 45 48 56 136 56 79 0 85 -2
112 -28z"/>
</g>
</svg>
