<?xml version="1.0" standalone="no"?>
<!DOCTYPE svg PUBLIC "-//W3C//DTD SVG 20010904//EN"
 "http://www.w3.org/TR/2001/REC-SVG-20010904/DTD/svg10.dtd">
<svg version="1.0" xmlns="http://www.w3.org/2000/svg"
 width="256.000000pt" height="256.000000pt" viewBox="0 0 256.000000 256.000000"
 preserveAspectRatio="xMidYMid meet">

<g transform="translate(0.000000,256.000000) scale(0.100000,-0.100000)"
fill="#000000" stroke="none">
<path d="M355 2542 c-65 -22 -109 -54 -146 -105 -60 -83 -59 -67 -59 -914 l0
-773 -76 0 -76 0 3 -112 c4 -99 8 -120 32 -170 31 -64 80 -111 146 -142 41
-19 68 -21 234 -24 l187 -4 0 -149 0 -149 980 0 980 0 0 680 0 680 -300 0
-300 0 0 150 0 150 -75 0 -75 0 0 150 0 150 226 0 227 0 -5 183 c-6 218 -18
258 -103 335 -94 86 -47 82 -954 82 -729 -1 -800 -2 -846 -18z m1335 -136 c0
-2 -8 -21 -17 -42 -15 -34 -18 -85 -21 -371 l-4 -333 -224 0 -224 0 0 -150 0
-150 -300 0 -300 0 0 -305 0 -305 -150 0 -150 0 0 770 c0 752 0 772 20 810 12
24 35 47 58 59 36 19 60 20 675 21 350 0 637 -2 637 -4z m330 -14 c19 -9 45
-32 57 -51 20 -30 23 -47 23 -132 l0 -99 -145 0 -145 0 0 99 c0 85 3 102 23
132 26 39 79 69 122 69 17 0 46 -8 65 -18z m-220 -957 l0 -75 -220 0 -220 0 0
75 0 75 220 0 220 0 0 -75z m608 -387 l-3 -162 -335 -68 c-324 -65 -340 -67
-485 -67 -145 -1 -160 2 -490 67 l-340 67 -3 163 -2 162 830 0 830 0 -2 -162z
m-1335 -378 l277 -54 0 -158 0 -158 230 0 230 0 0 158 0 157 278 54 c152 30
287 57 300 59 l22 4 0 -291 0 -291 -830 0 -830 0 0 291 0 291 23 -4 c12 -2
147 -29 300 -58z m-473 -145 l0 -75 -165 0 c-194 0 -230 11 -265 80 -37 73
-46 70 205 70 l225 0 0 -75z m1050 0 l0 -75 -70 0 -70 0 0 75 0 75 70 0 70 0
0 -75z"/>
<path d="M450 2185 l0 -75 530 0 530 0 0 75 0 75 -530 0 -530 0 0 -75z"/>
<path d="M450 1885 l0 -75 530 0 530 0 0 75 0 75 -530 0 -530 0 0 -75z"/>
<path d="M450 1585 l0 -75 305 0 305 0 0 75 0 75 -305 0 -305 0 0 -75z"/>
</g>
</svg>
