
<svg version="1.0" 
 width="512.000000pt" height="512.000000pt" viewBox="0 0 512.000000 512.000000"
 preserveAspectRatio="xMidYMid meet">
<g transform="translate(0.000000,512.000000) scale(0.100000,-0.100000)"
fill="#000000" stroke="none">
<path d="M2250 5095 c0 -14 -7 -36 -15 -48 -8 -12 -35 -112 -60 -222 -26 -110
-47 -200 -48 -201 -1 -1 -44 -13 -95 -28 -179 -50 -402 -145 -523 -222 -30
-18 -52 -24 -98 -24 -57 0 -63 3 -222 101 l-162 101 -230 -230 -229 -229 101
-161 c99 -158 101 -163 101 -222 0 -49 -5 -69 -30 -108 -79 -129 -194 -408
-229 -558 l-12 -51 -207 -48 c-114 -26 -214 -54 -223 -61 -8 -8 -28 -14 -42
-14 l-27 0 0 -310 0 -310 25 0 c14 0 36 -7 48 -15 12 -8 112 -35 222 -60 110
-26 200 -47 201 -48 1 -1 13 -44 28 -95 50 -179 145 -402 222 -523 18 -30 24
-52 24 -98 0 -58 -2 -64 -101 -222 l-101 -162 230 -230 229 -229 161 101 c159
99 163 101 222 101 47 0 69 -6 99 -24 122 -78 343 -171 523 -222 l95 -27 47
-201 c26 -111 54 -211 62 -223 7 -12 14 -34 14 -48 l0 -25 310 0 310 0 0 25
c0 14 7 36 15 48 8 12 35 112 60 222 26 110 47 200 48 201 1 1 52 16 112 33
175 51 389 143 507 217 29 18 51 24 98 24 59 0 63 -2 222 -101 l161 -101 229
229 230 230 -101 162 c-99 158 -101 164 -101 222 0 46 6 68 24 98 77 122 170
340 221 521 15 52 28 96 29 97 1 1 91 22 201 48 110 25 210 52 222 60 12 8 34
15 48 15 l25 0 0 310 0 310 -22 0 c-12 0 -40 9 -62 19 -23 11 -125 38 -228 62
l-187 42 -12 51 c-35 150 -150 429 -229 558 -25 39 -30 59 -30 108 0 59 2 64
101 222 l101 161 -229 229 -230 230 -162 -101 c-158 -98 -164 -101 -222 -101
-48 0 -68 6 -107 30 -129 79 -408 194 -558 229 l-51 12 -47 202 c-26 111 -54
212 -62 224 -7 12 -14 34 -14 48 l0 25 -310 0 -310 0 0 -25z m663 -267 c31
-132 54 -209 65 -221 10 -10 61 -28 113 -42 183 -46 389 -132 569 -236 l55
-32 161 102 c147 92 166 101 210 101 l49 0 182 -182 183 -183 0 -49 c0 -44 -9
-62 -101 -210 l-102 -161 32 -55 c104 -180 190 -386 236 -569 14 -52 32 -103
42 -113 12 -11 89 -34 221 -65 l202 -47 0 -306 0 -307 -167 -38 c-245 -56
-259 -60 -271 -93 -6 -15 -22 -71 -36 -124 -46 -178 -124 -363 -217 -516 -22
-35 -39 -68 -39 -72 0 -5 45 -80 100 -168 91 -145 100 -164 100 -208 l0 -49
-182 -182 -183 -183 -49 0 c-44 0 -62 9 -208 100 -88 55 -163 100 -168 100 -4
0 -37 -17 -72 -39 -153 -93 -338 -171 -516 -217 -53 -14 -109 -30 -124 -36
-33 -12 -38 -28 -94 -270 l-38 -168 -306 0 -306 0 -39 168 c-21 92 -44 188
-52 213 -15 52 -23 57 -138 85 -168 40 -391 132 -539 222 -37 23 -72 42 -76
42 -5 0 -80 -45 -168 -100 -145 -91 -164 -100 -208 -100 l-49 0 -182 182 -183
183 0 49 c0 44 9 62 100 208 55 88 100 163 100 168 0 4 -19 39 -42 76 -88 146
-176 357 -218 527 -12 45 -26 94 -32 109 -12 33 -28 38 -271 94 l-167 38 0
306 0 306 168 39 c92 21 188 44 213 52 52 15 57 23 85 138 40 168 132 391 222
539 23 37 42 72 42 76 0 5 -45 80 -100 168 -91 145 -100 164 -100 208 l0 49
182 182 183 183 49 0 c44 0 62 -9 193 -91 198 -123 179 -118 248 -73 132 84
381 188 550 228 115 28 123 33 138 85 8 25 31 121 52 214 l39 167 306 0 306 0
47 -202z"/>
<path d="M2367 3854 c-225 -41 -442 -142 -629 -293 -291 -235 -488 -638 -488
-1001 0 -320 152 -673 395 -915 240 -241 596 -395 910 -395 324 0 678 152 920
395 194 193 332 459 379 730 81 463 -161 984 -589 1272 -264 177 -615 258
-898 207z m458 -49 c490 -86 894 -492 980 -984 22 -126 20 -414 -4 -538 -97
-494 -483 -875 -981 -968 -115 -21 -375 -24 -495 -6 -44 7 -123 27 -175 43
-417 133 -726 469 -826 898 -36 155 -38 452 -4 608 50 226 168 442 334 608
215 215 471 330 796 358 76 7 290 -4 375 -19z"/>
</g>
</svg>
