
<svg 
 width="256.000000pt" height="256.000000pt" viewBox="0 0 256.000000 256.000000"
 preserveAspectRatio="xMidYMid meet">
<metadata>
Created by potrace 1.16, written by Peter Selinger 2001-2019
</metadata>
<g transform="translate(0.000000,256.000000) scale(0.100000,-0.100000)"
fill="#000000" stroke="none">
<path d="M325 2381 c-73 -35 -115 -78 -149 -151 l-26 -55 0 -677 0 -678 30 0
29 0 3 663 c3 610 4 665 21 701 28 64 61 99 118 131 l54 30 697 3 698 3 0 29
0 30 -707 0 -708 0 -60 -29z"/>
<path d="M1840 2381 l0 -28 158 -5 c151 -4 160 -6 212 -34 57 -31 101 -82 122
-142 19 -54 19 -1730 0 -1784 -23 -65 -67 -114 -129 -144 l-58 -29 -860 0
c-681 0 -868 3 -897 13 -64 23 -114 67 -144 127 -25 52 -28 70 -32 191 l-5
134 -28 0 -29 0 0 -147 c0 -137 2 -152 26 -203 34 -73 76 -116 149 -151 l60
-29 895 0 895 0 60 29 c73 35 115 78 149 151 l26 55 0 895 0 895 -26 55 c-34
73 -76 116 -149 151 -59 28 -64 29 -227 29 l-168 0 0 -29z"/>
<path d="M680 1961 c-19 -10 -48 -35 -64 -55 -26 -31 -31 -48 -34 -104 -3 -60
0 -72 26 -113 84 -130 282 -109 338 36 47 124 -43 255 -176 255 -35 0 -68 -7
-90 -19z m154 -72 c82 -65 64 -181 -34 -210 -99 -30 -184 77 -135 171 30 58
118 79 169 39z"/>
<path d="M585 1528 c-3 -7 -4 -222 -3 -478 l3 -465 185 0 185 0 3 464 c1 334
-1 468 -9 477 -16 19 -357 20 -364 2z m305 -468 l0 -410 -120 0 -120 0 0 410
0 410 120 0 120 0 0 -410z"/>
<path d="M1082 1532 c-10 -7 -12 -109 -10 -478 l3 -469 154 -3 c117 -2 156 1
163 10 4 7 8 135 8 283 0 307 4 325 73 359 67 33 143 -1 162 -72 4 -15 10
-151 13 -302 l7 -275 160 0 160 0 0 350 c0 344 -1 351 -24 410 -32 82 -97 145
-176 170 -91 30 -240 27 -321 -6 l-61 -25 -11 28 -10 28 -139 0 c-76 0 -144
-4 -151 -8z m240 -119 c3 -52 5 -58 26 -61 17 -3 33 7 58 36 47 55 112 77 226
76 76 0 94 -4 145 -30 68 -35 107 -90 123 -173 5 -29 10 -179 10 -332 l0 -279
-94 0 -94 0 -5 253 c-3 149 -9 267 -16 289 -46 148 -260 173 -339 39 l-27 -46
-3 -267 -3 -268 -95 0 -94 0 0 410 0 410 90 0 89 0 3 -57z"/>
</g>
</svg>
