<svg version="1.0" 
 width="512.000000pt" height="512.000000pt" viewBox="0 0 512.000000 512.000000"
 preserveAspectRatio="xMidYMid meet">
<g transform="translate(0.000000,512.000000) scale(0.100000,-0.100000)"
fill="#000000" stroke="none">
<path d="M2305 4896 c-133 -43 -234 -130 -291 -250 -28 -60 -37 -93 -44 -170
-11 -107 -15 -118 -60 -161 -29 -28 -37 -30 -121 -34 -49 -1 -100 0 -114 3
-13 3 -50 29 -82 57 -66 59 -154 104 -229 118 -63 12 -153 -6 -228 -47 -69
-36 -370 -332 -416 -408 -48 -80 -72 -179 -60 -247 14 -71 61 -165 114 -224
61 -68 66 -81 66 -178 0 -153 -35 -189 -195 -204 -183 -18 -317 -109 -393
-268 l-37 -78 0 -245 0 -245 37 -78 c76 -159 210 -250 393 -267 155 -15 188
-46 194 -183 1 -48 0 -98 -3 -112 -3 -13 -29 -50 -57 -82 -94 -107 -139 -231
-119 -328 24 -116 60 -167 249 -355 188 -188 232 -219 342 -244 57 -14 72 -14
127 -1 78 18 124 41 191 97 95 77 98 78 194 78 150 0 189 -34 202 -175 17
-199 105 -332 275 -414 l75 -36 245 0 245 0 78 37 c159 76 250 210 267 392 11
107 15 118 60 161 29 28 37 30 121 34 113 4 130 -1 183 -49 65 -60 151 -107
225 -124 59 -14 74 -14 130 0 111 25 154 56 341 244 188 187 219 230 244 341
14 56 14 71 0 130 -16 73 -65 163 -118 219 -50 52 -56 70 -56 165 0 153 35
189 195 204 183 18 317 109 393 268 l37 78 0 245 0 245 -37 78 c-76 159 -210
250 -393 267 -155 15 -188 46 -194 183 -1 48 0 98 3 112 3 13 29 50 57 82 94
107 139 231 119 328 -24 116 -60 167 -249 355 -188 188 -232 219 -342 244 -57
14 -72 14 -127 1 -78 -18 -124 -41 -191 -97 -95 -77 -97 -78 -199 -78 -152 0
-186 34 -201 195 -18 183 -109 317 -268 393 l-78 37 -230 2 c-167 2 -241 -1
-270 -11z m545 -231 c50 -30 69 -69 79 -171 11 -110 40 -187 94 -259 86 -112
209 -179 332 -179 61 0 82 5 146 35 41 20 99 57 128 83 29 26 64 52 78 57 40
15 170 11 206 -7 44 -22 284 -261 308 -306 14 -27 19 -58 19 -112 0 -90 -8
-113 -58 -168 -86 -95 -138 -216 -129 -303 17 -160 140 -317 294 -375 32 -12
98 -26 147 -31 102 -10 141 -29 171 -79 19 -33 20 -52 20 -290 0 -238 -1 -257
-20 -290 -30 -50 -69 -69 -171 -79 -110 -11 -187 -40 -259 -94 -112 -85 -178
-208 -179 -332 -1 -61 4 -80 35 -146 20 -41 57 -99 83 -128 59 -67 66 -85 66
-177 0 -54 -5 -85 -19 -112 -24 -45 -264 -284 -308 -306 -36 -18 -166 -22
-206 -7 -13 5 -49 31 -80 58 -95 83 -223 133 -308 119 -156 -25 -304 -146
-359 -294 -12 -31 -26 -97 -31 -146 -10 -102 -29 -141 -79 -171 -33 -19 -52
-20 -290 -20 -238 0 -257 1 -290 20 -52 31 -69 69 -80 181 -7 81 -15 110 -45
172 -48 97 -121 169 -221 218 -69 35 -85 38 -153 38 -54 0 -92 -6 -131 -22
-50 -20 -75 -37 -186 -127 -34 -27 -45 -30 -124 -33 -67 -3 -95 0 -121 13 -46
23 -286 261 -310 307 -14 27 -19 58 -19 112 0 93 6 109 67 179 57 65 100 147
116 222 31 150 -88 348 -258 430 -57 28 -92 37 -170 45 -111 12 -149 29 -180
80 -19 33 -20 52 -20 290 0 238 1 257 20 290 30 50 69 69 171 79 49 5 115 19
146 31 155 58 278 215 295 375 9 87 -43 208 -129 303 -50 55 -58 78 -58 168 0
54 5 85 19 112 24 47 277 297 314 311 35 13 167 14 200 2 13 -5 49 -31 80 -58
106 -93 232 -136 332 -114 81 18 166 65 225 124 90 90 126 169 141 310 13 126
40 167 122 188 17 4 138 7 267 6 216 -2 238 -4 270 -22z"/>
<path d="M2380 3610 c-155 -33 -268 -80 -398 -167 -351 -233 -552 -680 -474
-1053 95 -454 427 -787 877 -881 277 -58 594 31 847 238 292 238 450 649 380
983 -41 196 -121 362 -248 513 -241 287 -648 439 -984 367z m405 -226 c92 -20
255 -100 329 -162 126 -105 225 -264 266 -426 29 -113 28 -360 0 -472 -61
-237 -216 -426 -435 -530 -131 -61 -210 -77 -390 -76 -179 0 -263 19 -400 86
-164 82 -285 207 -363 376 -57 123 -72 201 -72 383 0 184 17 266 84 402 98
197 265 338 481 405 132 41 348 47 500 14z"/>
</g>
</svg>
