
<svg version="1.0"
 width="512.000000pt" height="512.000000pt" viewBox="0 0 512.000000 512.000000"
 preserveAspectRatio="xMidYMid meet">
<g transform="translate(0.000000,512.000000) scale(0.100000,-0.100000)"
fill="#000000" stroke="none">
<path d="M2250 5093 c0 -20 -10 -36 -36 -56 -19 -16 -39 -40 -44 -53 -6 -14
-23 -107 -40 -207 -17 -100 -32 -191 -35 -203 -4 -17 -32 -30 -147 -68 -79
-26 -205 -78 -282 -117 -199 -99 -188 -101 -401 51 -109 78 -177 120 -194 120
-37 0 -511 -474 -511 -511 0 -17 42 -85 120 -194 152 -213 150 -202 51 -401
-39 -77 -91 -203 -117 -282 -38 -115 -51 -143 -68 -147 -12 -3 -103 -18 -203
-35 -100 -17 -193 -34 -207 -40 -13 -5 -37 -25 -53 -44 -20 -26 -36 -36 -55
-36 l-28 0 0 -310 0 -310 28 0 c19 0 35 -10 55 -36 16 -19 40 -39 53 -44 14
-6 107 -23 207 -40 100 -17 191 -32 203 -35 17 -4 30 -32 68 -147 26 -79 78
-205 117 -282 99 -199 101 -188 -51 -401 -78 -109 -120 -177 -120 -194 0 -37
474 -511 511 -511 17 0 85 42 194 120 213 152 202 150 401 51 77 -39 203 -91
282 -117 115 -38 143 -51 147 -68 3 -12 18 -103 35 -203 17 -100 34 -193 40
-207 5 -13 25 -37 44 -53 26 -20 36 -36 36 -55 l0 -28 310 0 310 0 0 28 c0 19
10 35 36 55 19 16 39 40 44 53 6 14 23 107 40 207 17 100 32 191 35 203 4 17
32 30 147 68 79 26 205 78 282 117 199 99 188 101 401 -51 109 -78 177 -120
194 -120 37 0 511 474 511 511 0 17 -42 85 -120 194 -152 213 -150 202 -51
401 39 77 91 203 117 282 38 115 51 143 68 147 12 3 103 18 203 35 100 17 193
34 207 40 13 5 37 25 53 44 20 26 36 36 56 36 l27 0 0 310 0 310 -27 0 c-20 0
-36 10 -56 36 -16 19 -40 39 -53 44 -14 6 -107 23 -207 40 -100 17 -191 32
-203 35 -17 4 -30 32 -68 147 -26 79 -78 205 -117 282 -99 199 -101 188 51
401 78 109 120 177 120 194 0 37 -474 511 -511 511 -17 0 -85 -42 -194 -120
-213 -152 -202 -150 -401 -51 -77 39 -203 91 -282 117 -115 38 -143 51 -147
68 -3 12 -18 103 -35 203 -17 100 -34 193 -40 207 -5 13 -25 37 -44 53 -26 20
-36 36 -36 56 l0 27 -310 0 -310 0 0 -27z m600 -857 c530 -87 973 -403 1214
-866 137 -263 186 -475 186 -810 0 -212 -10 -304 -49 -457 -114 -445 -422
-834 -831 -1047 -167 -87 -328 -140 -520 -172 -114 -18 -466 -18 -580 0 -361
60 -668 215 -919 467 -252 251 -407 558 -467 919 -18 114 -18 466 0 580 60
361 215 668 467 919 248 249 554 405 909 466 106 18 482 18 590 1z"/>
<path d="M2445 3241 c-206 -60 -366 -224 -419 -428 -20 -77 -20 -129 0 -206
54 -208 223 -377 431 -431 111 -29 207 -14 337 51 173 87 316 306 316 483 0
177 -143 396 -316 483 -132 67 -236 81 -349 48z"/>
<path d="M1834 2018 c-52 -55 -120 -159 -164 -248 l-41 -85 77 -73 c97 -92
199 -161 328 -223 194 -92 331 -124 526 -124 195 0 332 32 526 124 129 62 231
131 328 223 l77 73 -41 84 c-42 87 -131 220 -172 258 l-24 23 -35 -36 c-85
-88 -253 -182 -394 -220 -102 -27 -428 -27 -530 0 -142 38 -286 117 -385 213
l-46 43 -30 -32z"/>
</g>
</svg>
